<svg width="36" height="36" viewBox="0 0 36 36" fill="none" xmlns="http://www.w3.org/2000/svg">
<rect width="36" height="36" fill="#161616"/>
<path d="M28.1479 25.0767C26.0664 27.4544 23.0087 28.9561 19.6003 28.9561C13.3287 28.9561 8.24451 23.8719 8.24451 17.6003C8.24451 11.3287 13.3287 6.24451 19.6003 6.24451C23.0087 6.24451 26.0664 7.74613 28.1479 10.1239L31 8.47721C28.3243 5.13815 24.212 3 19.6003 3C11.5368 3 5 9.53677 5 17.6003C5 25.6638 11.5368 32.2006 19.6003 32.2006C24.212 32.2006 28.3243 30.0624 31 26.7234L28.1479 25.0767Z" fill="#D6DBDC"/>
<path d="M28.1479 25.0767C26.0664 27.4544 23.0087 28.9561 19.6003 28.9561C13.3287 28.9561 8.24451 23.8719 8.24451 17.6003C8.24451 11.3287 13.3287 6.24451 19.6003 6.24451C23.0087 6.24451 26.0664 7.74613 28.1479 10.1239L31 8.47721C28.3243 5.13815 24.212 3 19.6003 3C11.5368 3 5 9.53677 5 17.6003C5 25.6638 11.5368 32.2006 19.6003 32.2006C24.212 32.2006 28.3243 30.0624 31 26.7234L28.1479 25.0767Z" fill="url(#paint0_linear_2_3)"/>
<g style="mix-blend-mode:lighten" filter="url(#filter0_b_2_3)">
<path d="M25.3929 22.6612C23.9968 24.2546 21.9459 25.2609 19.6598 25.2609C15.4531 25.2609 12.043 21.8538 12.043 17.651C12.043 13.4481 15.4531 10.041 19.6598 10.041C21.9459 10.041 23.9968 11.0473 25.3929 12.6408L27.306 11.5373C25.5113 9.29962 22.753 7.86676 19.6598 7.86676C14.2512 7.86676 9.86676 12.2473 9.86676 17.651C9.86676 23.0547 14.2512 27.4352 19.6598 27.4352C22.753 27.4352 25.5113 26.0023 27.306 23.7647L25.3929 22.6612Z" fill="#D6DBDC"/>
<path d="M25.3929 22.6612C23.9968 24.2546 21.9459 25.2609 19.6598 25.2609C15.4531 25.2609 12.043 21.8538 12.043 17.651C12.043 13.4481 15.4531 10.041 19.6598 10.041C21.9459 10.041 23.9968 11.0473 25.3929 12.6408L27.306 11.5373C25.5113 9.29962 22.753 7.86676 19.6598 7.86676C14.2512 7.86676 9.86676 12.2473 9.86676 17.651C9.86676 23.0547 14.2512 27.4352 19.6598 27.4352C22.753 27.4352 25.5113 26.0023 27.306 23.7647L25.3929 22.6612Z" fill="url(#paint1_linear_2_3)"/>
</g>
<defs>
<filter id="filter0_b_2_3" x="5.86676" y="3.86676" width="25.4392" height="27.5684" filterUnits="userSpaceOnUse" color-interpolation-filters="sRGB">
<feFlood flood-opacity="0" result="BackgroundImageFix"/>
<feGaussianBlur in="BackgroundImageFix" stdDeviation="2"/>
<feComposite in2="SourceAlpha" operator="in" result="effect1_backgroundBlur_2_3"/>
<feBlend mode="normal" in="SourceGraphic" in2="effect1_backgroundBlur_2_3" result="shape"/>
</filter>
<linearGradient id="paint0_linear_2_3" x1="30.9561" y1="32.2006" x2="5" y2="32.2006" gradientUnits="userSpaceOnUse">
<stop stop-color="#161616"/>
<stop offset="1" stop-color="white" stop-opacity="0"/>
</linearGradient>
<linearGradient id="paint1_linear_2_3" x1="9.86676" y1="27.4352" x2="27.306" y2="27.4352" gradientUnits="userSpaceOnUse">
<stop stop-color="#161616"/>
<stop offset="1" stop-color="white" stop-opacity="0"/>
</linearGradient>
</defs>
</svg>
