<svg width="232" height="232" viewBox="0 0 232 232" fill="none" xmlns="http://www.w3.org/2000/svg">
<path d="M118.158 212C95.8561 212 77.4209 203.126 62.8525 185.378C48.2842 167.451 41 144.863 41 117.613C41 102.375 43.518 88.5714 48.554 76.2017C53.7698 63.8319 60.3345 54.0616 68.2482 46.8908C76.3417 39.5406 84.8849 33.8936 93.8777 29.9496C102.871 26.0056 111.683 24.0336 120.317 24.0336C126.432 24.0336 133.536 24.93 141.629 26.7227C149.723 28.3361 154.759 29.1429 156.737 29.1429C163.032 29.1429 166 26.2745 165.64 20.5378L167.259 20L190.73 83.1933L188.842 84C176.612 62.8459 165.011 47.9664 154.04 39.3613C143.068 30.7563 131.827 26.4538 120.317 26.4538C104.309 26.4538 90.3705 33.0868 78.5 46.3529C66.8093 59.4398 60.964 76.8291 60.964 98.521C60.964 127.742 67.8885 151.317 81.7374 169.244C95.7662 187.171 112.942 196.134 133.266 196.134C158.086 196.134 176.701 183.765 189.112 159.025L191 159.832C184.345 174.891 174.543 187.35 161.594 197.21C148.644 207.07 134.165 212 118.158 212Z" fill="black"/>
</svg>
