<svg width="1000" height="1000" viewBox="0 0 1000 1000" fill="none" xmlns="http://www.w3.org/2000/svg">
<path d="M424.731 179.199C424.731 156.292 435.003 135.779 451.202 122C448.958 123.211 446.749 124.511 444.58 125.9L227.22 265.066C197.794 283.906 180 316.399 180 351.291V649.073C180 683.965 197.794 716.457 227.22 735.297L444.58 874.464C446.749 875.853 448.958 877.153 451.202 878.364C435.003 864.584 424.731 844.072 424.731 821.165V179.199Z" fill="black"/>
<path d="M575.269 179.199C575.269 156.292 564.997 135.779 548.798 122C551.042 123.211 553.251 124.511 555.42 125.9L772.78 265.066C802.206 283.906 820 316.399 820 351.291V421.643H575.269V179.199Z" fill="black"/>
<path d="M575.269 571.891V821.165C575.269 844.072 564.997 864.584 548.798 878.364C551.042 877.153 553.251 875.853 555.42 874.464L772.78 735.297C802.206 716.457 820 683.965 820 649.073V571.891H575.269Z" fill="black"/>
</svg>
