<svg width="675" height="96" viewBox="0 0 675 96" fill="none" xmlns="http://www.w3.org/2000/svg">
<path d="M667.515 83.872C667.515 86.6027 667.899 88.352 668.667 89.12C669.52 89.8027 671.312 90.144 674.043 90.144H674.171V91.168H672.123C671.27 91.168 669.904 91.1253 668.027 91.04C666.15 90.8693 664.528 90.784 663.163 90.784C661.798 90.784 660.176 90.8693 658.299 91.04C656.422 91.1253 655.056 91.168 654.203 91.168H652.155V90.144H652.283C655.014 90.144 656.763 89.8027 657.531 89.12C658.384 88.352 658.811 86.6027 658.811 83.872V11.296C658.811 8.56534 658.384 6.85867 657.531 6.176C656.763 5.408 655.014 5.024 652.283 5.024H652.155V4H654.203C655.056 4 656.422 4.08533 658.299 4.256C660.176 4.34134 661.798 4.384 663.163 4.384C664.528 4.384 666.15 4.34134 668.027 4.256C669.904 4.08533 671.27 4 672.123 4H674.171V5.024H674.043C671.312 5.024 669.52 5.408 668.667 6.176C667.899 6.85867 667.515 8.56534 667.515 11.296V83.872Z" fill="currentColor"/>
<path d="M646.197 60.368L633.397 93.136L632.629 92.88C632.8 91.6 632.586 90.6613 631.989 90.064C631.392 89.4667 630.282 89.168 628.661 89.168H600.373C599.52 89.168 598.154 89.168 596.277 89.168C594.4 89.0827 592.778 89.04 591.413 89.04C590.048 89.04 588.426 89.0827 586.549 89.168C584.672 89.168 583.306 89.168 582.453 89.168H580.405V88.144H580.533C583.264 88.144 585.013 87.8027 585.781 87.12C586.634 86.352 587.061 84.6027 587.061 81.872V9.29601C587.061 6.56534 586.634 4.85867 585.781 4.176C585.013 3.408 583.264 3.024 580.533 3.024H580.405V2H582.453C583.306 2 584.672 2.08533 586.549 2.256C588.426 2.34134 590.048 2.384 591.413 2.384C592.778 2.384 594.4 2.34134 596.277 2.256C598.154 2.08533 599.52 2 600.373 2H602.421V3.024H602.293C599.562 3.024 597.77 3.408 596.917 4.176C596.149 4.85867 595.765 6.56534 595.765 9.29601V87.888H617.653C620.469 87.888 622.773 87.5467 624.565 86.864C626.442 86.096 628.448 84.5173 630.581 82.128C633.994 78.288 638.944 70.9067 645.429 59.984L646.197 60.368Z" fill="currentColor"/>
<path d="M574.447 60.368L561.647 93.136L560.879 92.88C561.05 91.6 560.836 90.6613 560.239 90.064C559.642 89.4667 558.532 89.168 556.911 89.168H528.623C527.77 89.168 526.404 89.168 524.527 89.168C522.65 89.0827 521.028 89.04 519.663 89.04C518.298 89.04 516.676 89.0827 514.799 89.168C512.922 89.168 511.556 89.168 510.703 89.168H508.655V88.144H508.783C511.514 88.144 513.263 87.8027 514.031 87.12C514.884 86.352 515.311 84.6027 515.311 81.872V9.29601C515.311 6.56534 514.884 4.85867 514.031 4.176C513.263 3.408 511.514 3.024 508.783 3.024H508.655V2H510.703C511.556 2 512.922 2.08533 514.799 2.256C516.676 2.34134 518.298 2.384 519.663 2.384C521.028 2.384 522.65 2.34134 524.527 2.256C526.404 2.08533 527.77 2 528.623 2H530.671V3.024H530.543C527.812 3.024 526.02 3.408 525.167 4.176C524.399 4.85867 524.015 6.56534 524.015 9.29601V87.888H545.903C548.719 87.888 551.023 87.5467 552.815 86.864C554.692 86.096 556.698 84.5173 558.831 82.128C562.244 78.288 567.194 70.9067 573.679 59.984L574.447 60.368Z" fill="currentColor"/>
<path d="M487.627 95.232L486.859 94.976C487.03 93.7813 486.816 92.8427 486.219 92.16C485.622 91.5627 484.512 91.264 482.891 91.264H452.555C451.275 91.264 449.483 91.264 447.179 91.264C444.875 91.1787 442.87 91.136 441.163 91.136C439.798 91.136 438.176 91.1787 436.299 91.264C434.422 91.264 433.056 91.264 432.203 91.264H430.155V90.24H430.283C433.014 90.24 434.763 89.8987 435.531 89.216C436.384 88.448 436.811 86.6987 436.811 83.968V11.392C436.811 8.66134 436.384 6.95467 435.531 6.272C434.763 5.504 433.014 5.12 430.283 5.12H430.155V4.096H432.203C433.056 4.096 434.422 4.13867 436.299 4.22401C438.176 4.22401 439.798 4.22401 441.163 4.22401C442.87 4.22401 444.875 4.22401 447.179 4.22401C449.483 4.13867 451.275 4.096 452.555 4.096H481.227C482.848 4.096 484 3.79734 484.683 3.2C485.366 2.51734 485.622 1.536 485.451 0.256004L486.219 0L497.995 28.928L497.227 29.312C490.315 19.584 485.494 13.2693 482.763 10.368C479.691 7.04001 475.595 5.37601 470.475 5.37601H445.515V46.336H461.899C466.592 46.336 469.707 45.056 471.243 42.496C472.779 39.8507 473.846 35.4987 474.443 29.44H475.339V64.896H474.443C474.102 61.824 473.76 59.4773 473.419 57.856C473.078 56.1493 472.48 54.4 471.627 52.608C470.859 50.816 469.664 49.536 468.043 48.768C466.422 48 464.374 47.616 461.899 47.616H445.515V89.984H471.883C474.699 89.984 477.003 89.6427 478.795 88.96C480.672 88.192 482.678 86.6133 484.811 84.224C488.907 79.616 493.643 72.7893 499.019 63.744L499.787 64.128L487.627 95.232Z" fill="currentColor"/>
<path d="M423.523 91.168C421.475 91.168 419.512 91.1253 417.635 91.04C415.843 90.8693 414.094 90.784 412.387 90.784C411.448 90.784 410.339 90.8693 409.059 91.04C407.779 91.1253 406.84 91.168 406.243 91.168L383.331 50.208H364.515V83.872C364.515 86.6027 364.899 88.352 365.667 89.12C366.52 89.8027 368.312 90.144 371.043 90.144H371.171V91.168H369.123C368.27 91.168 366.904 91.1253 365.027 91.04C363.15 90.8693 361.528 90.784 360.163 90.784C358.798 90.784 357.176 90.8693 355.299 91.04C353.422 91.1253 352.056 91.168 351.203 91.168H349.155V90.144H349.283C352.014 90.144 353.763 89.8027 354.531 89.12C355.384 88.352 355.811 86.6027 355.811 83.872V11.296C355.811 8.56534 355.384 6.85867 354.531 6.176C353.763 5.408 352.014 5.024 349.283 5.024H349.155V4H351.203C352.056 4 353.422 4.04267 355.299 4.12801C357.176 4.12801 358.798 4.12801 360.163 4.12801C361.87 4.12801 363.875 4.12801 366.179 4.12801C368.483 4.04267 370.275 4 371.555 4H385.379C393.486 4 400.27 6.09067 405.731 10.272C411.278 14.4533 414.051 20.0853 414.051 27.168C414.051 33.568 411.448 39.0293 406.243 43.552C401.123 47.9893 394.211 50.208 385.507 50.208H384.995C386.616 52.768 388.28 54.56 389.987 55.584C391.779 56.5227 394.168 56.992 397.155 56.992L408.931 78.112C411.662 83.0613 413.966 86.2613 415.843 87.712C417.72 89.1627 420.28 89.9733 423.523 90.144V91.168ZM404.195 27.168C404.195 19.744 402.787 14.24 399.971 10.656C397.24 7.07201 392.248 5.28001 384.995 5.28001H364.515V48.928H384.995C392.163 48.928 397.155 47.264 399.971 43.936C402.787 40.5227 404.195 34.9333 404.195 27.168Z" fill="currentColor"/>
<path d="M345.482 91.168H342.794C342.282 91.168 340.917 91.1253 338.698 91.04C336.479 90.8693 334.73 90.784 333.45 90.784C331.914 90.784 329.994 90.8693 327.69 91.04C325.386 91.1253 324.021 91.168 323.594 91.168H320.906V90.144C325.343 90.144 327.562 88.8213 327.562 86.176C327.562 85.3227 327.263 84.256 326.666 82.976L320.01 67.104H278.794L275.338 75.808C274.143 78.88 273.546 81.3973 273.546 83.36C273.546 87.8827 276.575 90.144 282.634 90.144V91.168H281.098C280.159 91.168 278.41 91.1253 275.85 91.04C273.29 90.8693 271.455 90.784 270.346 90.784C269.749 90.784 268.255 90.8693 265.866 91.04C263.562 91.1253 262.069 91.168 261.386 91.168H258.698V90.144C262.197 89.9733 265.098 88.8213 267.402 86.688C269.791 84.4693 272.01 80.7573 274.058 75.552L297.994 14.368L293.642 4C294.41 4 295.306 4.04267 296.33 4.12801C297.354 4.12801 298.122 4.12801 298.634 4.12801C299.146 4.12801 299.871 4.12801 300.81 4.12801C301.749 4.04267 302.517 4 303.114 4L336.394 83.488C338.271 87.9253 341.301 90.144 345.482 90.144V91.168ZM298.762 15.776L279.306 65.824H319.498L298.762 15.776Z" fill="currentColor"/>
<path d="M225.974 93.52C215.393 93.52 206.689 89.296 199.862 80.848C193.121 72.3147 189.75 61.5627 189.75 48.592C189.75 41.2533 190.945 34.64 193.334 28.752C195.809 22.7787 198.923 18.0853 202.678 14.672C206.518 11.1733 210.486 8.528 214.582 6.736C218.763 4.944 222.817 4.048 226.742 4.048C229.729 4.048 233.057 4.47466 236.726 5.328C240.395 6.096 242.614 6.48 243.382 6.48C246.369 6.48 247.777 5.072 247.606 2.256L248.374 2L260.15 31.056L259.382 31.44C253.579 21.8827 248.075 15.1413 242.87 11.216C237.75 7.20533 232.374 5.2 226.742 5.2C218.806 5.2 211.894 8.44267 206.006 14.928C200.203 21.328 197.302 29.8187 197.302 40.4C197.302 54.3947 200.587 65.744 207.158 74.448C213.814 83.0667 222.049 87.376 231.862 87.376C243.638 87.376 252.726 81.4027 259.126 69.456L260.022 69.84C256.779 76.6667 252.086 82.3413 245.942 86.864C239.883 91.3013 233.227 93.52 225.974 93.52Z" fill="currentColor"/>
<path d="M146.974 93.52C136.393 93.52 127.689 89.296 120.862 80.848C114.121 72.3147 110.75 61.5627 110.75 48.592C110.75 41.2533 111.945 34.64 114.334 28.752C116.809 22.7787 119.923 18.0853 123.678 14.672C127.518 11.1733 131.486 8.528 135.582 6.736C139.763 4.944 143.817 4.048 147.742 4.048C150.729 4.048 154.057 4.47466 157.726 5.328C161.395 6.096 163.614 6.48 164.382 6.48C167.369 6.48 168.777 5.072 168.606 2.256L169.374 2L181.15 31.056L180.382 31.44C174.579 21.8827 169.075 15.1413 163.87 11.216C158.75 7.20533 153.374 5.2 147.742 5.2C139.806 5.2 132.894 8.44267 127.006 14.928C121.203 21.328 118.302 29.8187 118.302 40.4C118.302 54.3947 121.587 65.744 128.158 74.448C134.814 83.0667 143.049 87.376 152.862 87.376C164.638 87.376 173.726 81.4027 180.126 69.456L181.022 69.84C177.779 76.6667 173.086 82.3413 166.942 86.864C160.883 91.3013 154.227 93.52 146.974 93.52Z" fill="currentColor"/>
<path d="M95.015 83.872C95.015 86.6027 95.399 88.352 96.167 89.12C97.0204 89.8027 98.8124 90.144 101.543 90.144H101.671V91.168H99.623C98.7697 91.168 97.4044 91.1253 95.527 91.04C93.6497 90.8693 92.0284 90.784 90.663 90.784C89.2977 90.784 87.6764 90.8693 85.799 91.04C83.9217 91.1253 82.5564 91.168 81.703 91.168H79.655V90.144H79.783C82.5137 90.144 84.263 89.8027 85.031 89.12C85.8844 88.352 86.311 86.6027 86.311 83.872V11.296C86.311 8.56534 85.8844 6.85867 85.031 6.176C84.263 5.408 82.5137 5.024 79.783 5.024H79.655V4H81.703C82.5564 4 83.9217 4.08533 85.799 4.256C87.6764 4.34134 89.2977 4.384 90.663 4.384C92.0284 4.384 93.6497 4.34134 95.527 4.256C97.4044 4.08533 98.7697 4 99.623 4H101.671V5.024H101.543C98.8124 5.024 97.0204 5.408 96.167 6.176C95.399 6.85867 95.015 8.56534 95.015 11.296V83.872Z" fill="currentColor"/>
<path d="M36.224 93.52C25.6427 93.52 16.9387 89.296 10.112 80.848C3.37067 72.3147 0 61.5627 0 48.592C0 41.2533 1.19467 34.64 3.584 28.752C6.05867 22.7787 9.17333 18.0853 12.928 14.672C16.768 11.1733 20.736 8.528 24.832 6.736C29.0133 4.944 33.0667 4.048 36.992 4.048C39.9787 4.048 43.3067 4.47466 46.976 5.328C50.6453 6.096 52.864 6.48 53.632 6.48C56.6187 6.48 58.0267 5.072 57.856 2.256L58.624 2L70.4 31.056L69.632 31.44C63.8293 21.8827 58.3253 15.1413 53.12 11.216C48 7.20533 42.624 5.2 36.992 5.2C29.056 5.2 22.144 8.44267 16.256 14.928C10.4533 21.328 7.552 29.8187 7.552 40.4C7.552 54.3947 10.8373 65.744 17.408 74.448C24.064 83.0667 32.2987 87.376 42.112 87.376C53.888 87.376 62.976 81.4027 69.376 69.456L70.272 69.84C67.0293 76.6667 62.336 82.3413 56.192 86.864C50.1333 91.3013 43.4773 93.52 36.224 93.52Z" fill="currentColor"/>
</svg>
