<svg width="304" height="56" viewBox="0 0 304 56" fill="none" xmlns="http://www.w3.org/2000/svg">
<path d="M17.8606 42.4186H20.0932V40.1861H22.3257V31.2558H13.3955V26.7907H22.3257V22.3256H13.3955V17.8605H22.3257V8.93024H24.5583V6.69769H26.7908V4.46513H29.0234V2.23257H31.2559V1.33514e-05H37.9536V2.23257H40.1862V4.46513H44.6513V2.23257H46.8839V1.33514e-05H49.1164V4.46513H46.8839V6.69769H44.6513V8.93024H35.7211V6.69769H33.4885V4.46513H31.2559V40.1861H29.0234V42.4186H26.7908V44.6512H17.8606V42.4186ZM35.7211 13.3954H40.1862V40.1861H35.7211V13.3954ZM4.46525 46.8837H2.23269V42.4186H0.000136256V17.8605H2.23269V13.3954H4.46525V8.93024H6.69781V6.69769H8.93037V4.46513H11.1629V2.23257H13.3955V1.33514e-05H20.0932V2.23257H17.8606V4.46513H15.628V6.69769H13.3955V11.1628H11.1629V15.6279H8.93037V40.1861H11.1629V44.6512H13.3955V46.8837H17.8606V49.1163H37.9536V46.8837H42.4187V44.6512H44.6513V42.4186H46.8839V46.8837H44.6513V49.1163H42.4187V51.3488H37.9536V53.5814H33.4885V55.814H15.628V53.5814H11.1629V51.3488H6.69781V49.1163H4.46525V46.8837ZM58.0903 2.23257H67.0205V11.1628H58.0903V2.23257ZM53.6251 46.8837H58.0903V26.7907H53.6251V22.3256H58.0903V20.093H60.3228V17.8605H64.7879V20.093H67.0205V22.3256H71.4856V26.7907H67.0205V46.8837H71.4856V49.1163H69.253V51.3488H67.0205V53.5814H64.7879V55.814H58.0903V51.3488H53.6251V46.8837ZM75.9376 46.8837H80.4028V26.7907H82.6353V24.5582H84.8679V22.3256H87.1004V20.093H89.333V17.8605H100.496V20.093H102.728V26.7907H96.0307V24.5582H93.7981V22.3256H91.5655V24.5582H89.333V46.8837H98.2632V49.1163H96.0307V51.3488H93.7981V53.5814H91.5655V55.814H84.8679V53.5814H82.6353V51.3488H75.9376V46.8837ZM107.156 46.8837H111.622V26.7907H113.854V24.5582H116.087V22.3256H118.319V20.093H120.552V17.8605H131.715V20.093H133.947V26.7907H127.249V24.5582H125.017V22.3256H122.784V24.5582H120.552V46.8837H129.482V49.1163H127.249V51.3488H125.017V53.5814H122.784V55.814H116.087V53.5814H113.854V51.3488H107.156V46.8837ZM151.77 46.8837H160.701V22.3256H151.77V46.8837ZM138.375 46.8837H142.84V26.7907H145.073V24.5582H147.305V22.3256H149.538V20.093H151.77V17.8605H165.166V20.093H167.398V22.3256H174.096V26.7907H169.631V46.8837H174.096V51.3488H171.864V53.5814H169.631V55.814H162.933V51.3488H158.468V53.5814H156.236V55.814H147.305V53.5814H145.073V51.3488H138.375V46.8837ZM178.594 46.8837H183.059V26.7907H178.594V22.3256H180.826V20.093H183.059V17.8605H187.524V22.3256H189.757V20.093H191.989V17.8605H203.152V20.093H205.385V26.7907H198.687V24.5582H196.454V22.3256H194.222V24.5582H191.989V46.8837H194.222V51.3488H191.989V53.5814H189.757V55.814H183.059V51.3488H178.594V46.8837ZM207.656 46.8837H212.122V26.7907H214.354V24.5582H216.587V22.3256H218.819V20.093H221.052V17.8605H232.215V20.093H234.447V22.3256H236.68V31.2558H232.215V29.0233H229.982V26.7907H227.749V24.5582H225.517V22.3256H223.284V24.5582H221.052V31.2558H232.215V35.7209H221.052V46.8837H229.982V49.1163H227.749V51.3488H225.517V53.5814H223.284V55.814H216.587V53.5814H214.354V51.3488H207.656V46.8837ZM241.125 46.8837H245.59V6.69769H247.823V4.46513H250.055V2.23257H252.288V1.33514e-05H254.52V46.8837H258.986V49.1163H256.753V51.3488H254.52V53.5814H252.288V55.814H245.59V51.3488H241.125V46.8837ZM263.438 46.8837H267.903V6.69769H270.135V4.46513H272.368V2.23257H274.6V1.33514e-05H276.833V46.8837H281.298V49.1163H279.066V51.3488H276.833V53.5814H274.6V55.814H267.903V51.3488H263.438V46.8837ZM290.215 2.23257H299.145V11.1628H290.215V2.23257ZM285.75 46.8837H290.215V26.7907H285.75V22.3256H290.215V20.093H292.448V17.8605H296.913V20.093H299.145V22.3256H303.611V26.7907H299.145V46.8837H303.611V49.1163H301.378V51.3488H299.145V53.5814H296.913V55.814H290.215V51.3488H285.75V46.8837Z" fill="black"/>
</svg>
