<svg width="100" height="100" viewBox="0 0 100 100" fill="none" xmlns="http://www.w3.org/2000/svg"><style>path{fill:#000}@media(prefers-color-scheme:dark){path{fill:#fff}}</style>
<path d="M42.8605 64.4186H45.093V62.186H47.3256V53.2558H38.3953V48.7907H47.3256V44.3256H38.3953V39.8605H47.3256V30.9302H49.5581V28.6977H51.7907V26.4651H54.0233V24.2326H56.2558V22H62.9535V24.2326H65.186V26.4651H69.6512V24.2326H71.8837V22H74.1163V26.4651H71.8837V28.6977H69.6512V30.9302H60.7209V28.6977H58.4884V26.4651H56.2558V62.186H54.0233V64.4186H51.7907V66.6512H42.8605V64.4186ZM60.7209 35.3953H65.186V62.186H60.7209V35.3953ZM29.4651 68.8837H27.2326V64.4186H25V39.8605H27.2326V35.3953H29.4651V30.9302H31.6977V28.6977H33.9302V26.4651H36.1628V24.2326H38.3953V22H45.093V24.2326H42.8605V26.4651H40.6279V28.6977H38.3953V33.1628H36.1628V37.6279H33.9302V62.186H36.1628V66.6512H38.3953V68.8837H42.8605V71.1163H62.9535V68.8837H67.4186V66.6512H69.6512V64.4186H71.8837V68.8837H69.6512V71.1163H67.4186V73.3488H62.9535V75.5814H58.4884V77.8139H40.6279V75.5814H36.1628V73.3488H31.6977V71.1163H29.4651V68.8837Z" fill="black"/>
</svg>
