<svg width="320" height="75" viewBox="0 0 320 75" fill="none" xmlns="http://www.w3.org/2000/svg">
<path d="M23.814 56.5581H26.7907V53.5814H29.7674V41.6744H17.8605V35.7209H29.7674V29.7674H17.8605V23.8139H29.7674V11.907H32.7442V8.93023H35.7209V5.95348H38.6977V2.97674H41.6744V0H50.6046V2.97674H53.5814V5.95348H59.5349V2.97674H62.5116V0H65.4884V5.95348H62.5116V8.93023H59.5349V11.907H47.6279V8.93023H44.6512V5.95348H41.6744V53.5814H38.6977V56.5581H35.7209V59.5349H23.814V56.5581ZM47.6279 17.8605H53.5814V53.5814H47.6279V17.8605ZM5.95349 62.5116H2.97674V56.5581H0V23.8139H2.97674V17.8605H5.95349V11.907H8.93023V8.93023H11.907V5.95348H14.8837V2.97674H17.8605V0H26.7907V2.97674H23.814V5.95348H20.8372V8.93023H17.8605V14.8837H14.8837V20.8372H11.907V53.5814H14.8837V59.5349H17.8605V62.5116H23.814V65.4884H50.6046V62.5116H56.5581V59.5349H59.5349V56.5581H62.5116V62.5116H59.5349V65.4884H56.5581V68.4651H50.6046V71.4419H44.6512V74.4186H20.8372V71.4419H14.8837V68.4651H8.93023V65.4884H5.95349V62.5116Z" fill="black" fill-opacity="0.1"/>
<path d="M306.471 11.8369H315.401V20.7672H306.471V11.8369ZM302.006 56.4881H306.471V36.3951H302.006V31.9299H306.471V29.6974H308.704V27.4648H313.169V29.6974H315.401V31.9299H319.866V36.3951H315.401V56.4881H319.866V58.7206H317.634V60.9532H315.401V63.1858H313.169V65.4183H306.471V60.9532H302.006V56.4881Z" fill="black"/>
<path d="M279.693 56.4882H284.158V16.3022H286.391V14.0696H288.624V11.837H290.856V9.60449H293.089V56.4882H297.554V58.7208H295.321V60.9533H293.089V63.1859H290.856V65.4184H284.158V60.9533H279.693V56.4882Z" fill="black"/>
<path d="M257.381 56.4882H261.846V16.3022H264.079V14.0696H266.311V11.837H268.544V9.60449H270.776V56.4882H275.241V58.7208H273.009V60.9533H270.776V63.1859H268.544V65.4184H261.846V60.9533H257.381V56.4882Z" fill="black"/>
<path d="M223.912 56.4881H228.377V36.3951H230.61V34.1625H232.842V31.93H235.075V29.6974H237.307V27.4648H248.47V29.6974H250.703V31.93H252.935V40.8602H248.47V38.6276H246.238V36.3951H244.005V34.1625H241.773V31.93H239.54V34.1625H237.307V40.8602H248.47V45.3253H237.307V56.4881H246.238V58.7207H244.005V60.9532H241.773V63.1858H239.54V65.4183H232.842V63.1858H230.61V60.9532H223.912V56.4881Z" fill="black"/>
<path d="M194.85 56.4881H199.315V36.3951H194.85V31.93H197.082V29.6974H199.315V27.4648H203.78V31.93H206.012V29.6974H208.245V27.4648H219.408V29.6974H221.64V36.3951H214.943V34.1625H212.71V31.93H210.478V34.1625H208.245V56.4881H210.478V60.9532H208.245V63.1858H206.012V65.4183H199.315V60.9532H194.85V56.4881Z" fill="black"/>
<path d="M168.026 56.4881H176.956V31.93H168.026V56.4881ZM154.631 56.4881H159.096V36.3951H161.329V34.1625H163.561V31.93H165.794V29.6974H168.026V27.4648H181.422V29.6974H183.654V31.93H190.352V36.3951H185.887V56.4881H190.352V60.9532H188.119V63.1858H185.887V65.4183H179.189V60.9532H174.724V63.1858H172.491V65.4183H163.561V63.1858H161.329V60.9532H154.631V56.4881Z" fill="black"/>
<path d="M123.412 56.4881H127.877V36.3951H130.11V34.1625H132.342V31.93H134.575V29.6974H136.807V27.4648H147.97V29.6974H150.203V36.3951H143.505V34.1625H141.273V31.93H139.04V34.1625H136.807V56.4881H145.738V58.7207H143.505V60.9532H141.273V63.1858H139.04V65.4183H132.342V63.1858H130.11V60.9532H123.412V56.4881Z" fill="black"/>
<path d="M92.1934 56.4881H96.6585V36.3951H98.891V34.1625H101.124V31.93H103.356V29.6974H105.589V27.4648H116.751V29.6974H118.984V36.3951H112.286V34.1625H110.054V31.93H107.821V34.1625H105.589V56.4881H114.519V58.7207H112.286V60.9532H110.054V63.1858H107.821V65.4183H101.124V63.1858H98.891V60.9532H92.1934V56.4881Z" fill="black"/>
<path d="M74.346 11.8369H83.2762V20.7672H74.346V11.8369ZM69.8809 56.4881H74.346V36.3951H69.8809V31.9299H74.346V29.6974H76.5785V27.4648H81.0436V29.6974H83.2762V31.9299H87.7413V36.3951H83.2762V56.4881H87.7413V58.7206H85.5088V60.9532H83.2762V63.1858H81.0436V65.4183H74.346V60.9532H69.8809V56.4881Z" fill="black"/>
<path d="M34.1163 52.0231H36.3489V49.7905H38.5814V40.8603H29.6512V36.3952H38.5814V31.9301H29.6512V27.465H38.5814V18.5347H40.814V16.3022H43.0466V14.0696H45.2791V11.837H47.5117V9.60449H54.2093V11.837H56.4419V14.0696H60.907V11.837H63.1396V9.60449H65.3721V14.0696H63.1396V16.3022H60.907V18.5347H51.9768V16.3022H49.7442V14.0696H47.5117V49.7905H45.2791V52.0231H43.0466V54.2557H34.1163V52.0231ZM51.9768 22.9998H56.4419V49.7905H51.9768V22.9998ZM20.721 56.4882H18.4884V52.0231H16.2559V27.465H18.4884V22.9998H20.721V18.5347H22.9535V16.3022H25.1861V14.0696H27.4187V11.837H29.6512V9.60449H36.3489V11.837H34.1163V14.0696H31.8838V16.3022H29.6512V20.7673H27.4187V25.2324H25.1861V49.7905H27.4187V54.2557H29.6512V56.4882H34.1163V58.7208H54.2093V56.4882H58.6745V54.2557H60.907V52.0231H63.1396V56.4882H60.907V58.7208H58.6745V60.9533H54.2093V63.1859H49.7442V65.4184H31.8838V63.1859H27.4187V60.9533H22.9535V58.7208H20.721V56.4882Z" fill="black"/>
</svg>
