<svg width="37" height="44" fill="none" xmlns="http://www.w3.org/2000/svg"><path d="M13.79 4.03c0-1.293.578-2.451 1.491-3.23-.126.069-.25.142-.373.22L2.661 8.878A5.783 5.783 0 0 0 0 13.745v16.812a5.783 5.783 0 0 0 2.66 4.868l12.248 7.856c.122.079.247.152.373.22a4.232 4.232 0 0 1-1.491-3.229V4.03ZM22.272 4.03A4.232 4.232 0 0 0 20.78.8c.127.069.251.142.373.22l12.248 7.857a5.783 5.783 0 0 1 2.66 4.868v3.972h-13.79V4.03ZM22.272 26.2v14.072a4.231 4.231 0 0 1-1.492 3.23c.127-.069.251-.142.373-.22l12.248-7.857a5.783 5.783 0 0 0 2.66-4.868v-4.358h-13.79Z" fill="#161616"/></svg>